<svg xmlns="http://www.w3.org/2000/svg" xmlns:xlink="http://www.w3.org/1999/xlink" width="1536" height="600" viewBox="0 0 1536 600">
  <defs>
    <clipPath id="clip-auto-101_hero-block-image">
      <rect width="1536" height="600"/>
    </clipPath>
  </defs>
  <g id="auto-101_hero-block-image" clip-path="url(#clip-auto-101_hero-block-image)">
    <rect width="1536" height="600" fill="#fff"/>
    <g id="hero-auto-101" transform="translate(-1335.68 -745.344)">
      <rect id="Rectangle_1801" data-name="Rectangle 1801" width="2948.619" height="1403.829" transform="translate(0)" fill="#eb711f"/>
      <path id="Path_84493" data-name="Path 84493" d="M.11,741.477v95.912H2846.121V501.82S703.622,718.81.11,741.477Z" transform="translate(0.115 525.733)" fill="#ff8a39"/>
      <path id="Path_84494" data-name="Path 84494" d="M1041.831,780.359a68.637,68.637,0,0,0-25.042,93.475l20.271,35.117a97.142,97.142,0,0,0-24.572,8.19h532.389c14.661-17.63,20.272-36.059,9.5-54.713l-91.018-66.18c22.75-.881-13.064-19.781-.9-40.953l97.386-168.665a68.452,68.452,0,1,0-117.783-69.785h0l-.8,1.372-2.805,4.853-60.16-104.2a81.353,81.353,0,0,0-110.819-29.691h0a81.353,81.353,0,0,0-29.69,110.819l9.521,16.381a128.367,128.367,0,0,0-167.907-36.305h0a128.326,128.326,0,0,0-46.83,174.788l70.337,121.835a68.371,68.371,0,0,0-61.081,3.665Z" transform="translate(1055.702 396.406)" fill="#ff8a39"/>
      <path id="Path_84495" data-name="Path 84495" d="M1707.087,259.746a66.508,66.508,0,0,0-53.239,33.008l-2.723,4.71-58.4-101.154a78.978,78.978,0,0,0-107.563-28.831h0a78.978,78.978,0,0,0-28.831,107.563l9.235,15.992a124.619,124.619,0,0,0-163.034-35.24h0a124.559,124.559,0,0,0-45.458,169.648l68.268,118.252a66.3,66.3,0,0,0-83.544,94.192l19.678,34.073a93.392,93.392,0,0,0-29.281,10.812,94.7,94.7,0,0,0-34.564,129L1277.49,950.01a94.888,94.888,0,0,0-36.857,73.039,109.014,109.014,0,0,0,8.19,40.441,94.194,94.194,0,0,0,4.341,8.559l7.229,12.511a109.221,109.221,0,0,0,89.626,46.748h155.437l-34.175-59.177a94.7,94.7,0,0,0,24.326-122.04l-70.951-122.859c.819-.43,1.659-.8,2.457-1.27A66.569,66.569,0,0,0,1460,763.1a125.4,125.4,0,0,0,94.192,29.855,42.527,42.527,0,0,0,5.2,3.6l43.881,25.33a43,43,0,0,0,58.542-15.685l45.273-78.486Z" transform="translate(1241.531 164.486)" fill="#de5f06"/>
      <path id="Path_84496" data-name="Path 84496" d="M1411.875,384.087l-14.8-25.637a67.208,67.208,0,0,0,37.063-12.921Z" transform="translate(1463.643 361.995)" fill="#de5f06"/>
      <rect id="Rectangle_1802" data-name="Rectangle 1802" width="344.006" height="409.264" transform="translate(2604.675 886.51)" fill="#d7f2f8"/>
      <rect id="Rectangle_1803" data-name="Rectangle 1803" width="343.944" height="24.756" transform="translate(2604.675 886.51)" fill="#91d8e8"/>
      <rect id="Rectangle_1804" data-name="Rectangle 1804" width="286.077" height="303.728" transform="translate(2662.541 992.067)" fill="#5873a6"/>
      <path id="Line_3147" data-name="Line 3147" d="M286.077.5H0v-1H286.077Z" transform="translate(2662.541 1219.848)" fill="#2c4a7a"/>
      <path id="Path_84497" data-name="Path 84497" d="M845.68,1064.811V911.688A103.959,103.959,0,0,0,742.028,808.036h0A104.061,104.061,0,0,0,643.5,879.7V824.622a141.841,141.841,0,0,0-278.133-39.356V478.651A183.183,183.183,0,0,0,182.692,296h0A183.183,183.183,0,0,0,0,478.651v586.161Z" transform="translate(0 310.105)" fill="#de5f06"/>
      <path id="Path_84498" data-name="Path 84498" d="M89.744,845.828A1.024,1.024,0,0,1,88.72,844.8V436.114a1.024,1.024,0,1,1,2.048,0V844.8A1.024,1.024,0,0,1,89.744,845.828Z" transform="translate(92.948 455.823)" fill="#eb711f"/>
      <path id="Path_84499" data-name="Path 84499" d="M120.6,566.1a1.024,1.024,0,0,1-.86-.471L59.413,472.321a1.024,1.024,0,0,1,1.659-1.188h0L121.4,564.465a1.024,1.024,0,0,1-.307,1.413A1,1,0,0,1,120.6,566.1Z" transform="translate(62.095 493.209)" fill="#eb711f"/>
      <path id="Path_84500" data-name="Path 84500" d="M245.524,712.051a1.024,1.024,0,0,1-1.024-1.024V559.174a1.024,1.024,0,0,1,2.048,0V711.028a1.024,1.024,0,0,1-1.024,1.024Z" transform="translate(256.151 584.747)" fill="#eb711f"/>
      <path id="Line_3148" data-name="Line 3148" d="M286.077.5H0v-1H286.077Z" transform="translate(2662.541 1143.921)" fill="#2c4a7a"/>
      <path id="Line_3149" data-name="Line 3149" d="M286.077.5H0v-1H286.077Z" transform="translate(2662.541 1067.994)" fill="#2c4a7a"/>
      <path id="Line_3150" data-name="Line 3150" d="M.5,303.708h-1V0h1Z" transform="translate(2772.254 992.067)" fill="#2c4a7a"/>
      <path id="Line_3151" data-name="Line 3151" d="M.5,303.708h-1V0h1Z" transform="translate(2881.968 992.067)" fill="#2c4a7a"/>
      <rect id="Rectangle_1805" data-name="Rectangle 1805" width="2948.619" height="117.556" transform="translate(0 1295.775)" fill="#2c4a7a"/>
      <path id="Path_84501" data-name="Path 84501" d="M857.045,505.86H806.059a14.845,14.845,0,0,0-13.474,21.05h0a24.121,24.121,0,0,0,21.91,14.026h57.211Z" transform="translate(828.93 529.965)" fill="#fff"/>
      <path id="Path_84502" data-name="Path 84502" d="M919.839,540.23,1428.64,545l-7.474,121.631h-81.23l-451.856-11.1Z" transform="translate(930.399 565.973)" fill="#292852"/>
      <circle id="Ellipse_920" data-name="Ellipse 920" cx="74.535" cy="74.535" r="74.535" transform="translate(1819.154 1146.972)" fill="#292852"/>
      <circle id="Ellipse_921" data-name="Ellipse 921" cx="74.535" cy="74.535" r="74.535" transform="translate(1541.493 1146.972)" fill="#292852"/>
      <circle id="Ellipse_922" data-name="Ellipse 922" cx="50.045" cy="50.045" r="50.045" transform="translate(1565.983 1171.462)" fill="#3179c9"/>
      <path id="Path_84503" data-name="Path 84503" d="M814.81,589.125A50.023,50.023,0,0,1,864.1,630.733a50.045,50.045,0,1,0-98.553,0,50.024,50.024,0,0,1,49.267-41.608Z" transform="translate(801.217 599.21)" fill="#259ed9"/>
      <path id="Ellipse_923" data-name="Ellipse 923" d="M16.873-.5a17.377,17.377,0,0,1,6.762,33.38A17.377,17.377,0,0,1,10.11.865,17.264,17.264,0,0,1,16.873-.5Zm0,33.745A16.373,16.373,0,0,0,28.45,5.3,16.373,16.373,0,1,0,5.3,28.45,16.265,16.265,0,0,0,16.873,33.245Z" transform="translate(1599.155 1204.634)" fill="#292852"/>
      <rect id="Rectangle_1806" data-name="Rectangle 1806" width="30.879" height="149.069" transform="translate(2258.785 1146.972)" fill="#292852"/>
      <ellipse id="Ellipse_924" data-name="Ellipse 924" cx="51.355" cy="74.535" rx="51.355" ry="74.535" transform="translate(2207.43 1146.972)" fill="#292852"/>
      <ellipse id="Ellipse_925" data-name="Ellipse 925" cx="51.355" cy="74.535" rx="51.355" ry="74.535" transform="translate(2238.309 1146.972)" fill="#292852"/>
      <path id="Path_84504" data-name="Path 84504" d="M1135.832,576.1c19.043,0,34.482,14.211,34.482,41.854s-15.439,50.086-34.482,50.086-34.482-22.4-34.482-50.045S1116.789,576.1,1135.832,576.1Z" transform="translate(1153.831 603.552)" fill="#fff"/>
      <path id="Path_84505" data-name="Path 84505" d="M1135.822,588.973c17.057,0,31.186,18,33.971,41.608a72.183,72.183,0,0,0,.532-8.436c0-27.643-15.439-50.044-34.482-50.044s-34.483,22.4-34.483,50.044a72.186,72.186,0,0,0,.532,8.437C1104.718,606.971,1118.765,588.973,1135.822,588.973Z" transform="translate(1153.842 599.362)" fill="#4ebee5"/>
      <path id="Ellipse_926" data-name="Ellipse 926" d="M11.631-.5A9.059,9.059,0,0,1,16.419.9a12.963,12.963,0,0,1,3.847,3.758,21.67,21.67,0,0,1,3.495,12.215,21.67,21.67,0,0,1-3.495,12.215,12.963,12.963,0,0,1-3.847,3.758,8.891,8.891,0,0,1-9.577,0,12.963,12.963,0,0,1-3.847-3.758A21.67,21.67,0,0,1-.5,16.873,21.67,21.67,0,0,1,2.995,4.658,12.963,12.963,0,0,1,6.842.9,9.059,9.059,0,0,1,11.631-.5Zm0,33.745c6.137,0,11.131-7.345,11.131-16.373S17.768.5,11.631.5.5,7.845.5,16.873,5.493,33.245,11.631,33.245Z" transform="translate(2278.033 1204.634)" fill="#4ebee5"/>
      <rect id="Rectangle_1807" data-name="Rectangle 1807" width="30.879" height="149.069" transform="translate(1982.086 1146.972)" fill="#292852"/>
      <ellipse id="Ellipse_927" data-name="Ellipse 927" cx="51.355" cy="74.535" rx="51.355" ry="74.535" transform="translate(1930.731 1146.972)" fill="#292852"/>
      <ellipse id="Ellipse_928" data-name="Ellipse 928" cx="51.355" cy="74.535" rx="51.355" ry="74.535" transform="translate(1961.61 1146.972)" fill="#292852"/>
      <ellipse id="Ellipse_929" data-name="Ellipse 929" cx="34.482" cy="50.045" rx="34.482" ry="50.045" transform="translate(1978.482 1171.462)" fill="#3179c9"/>
      <path id="Path_84506" data-name="Path 84506" d="M1000.713,588.973c17.057,0,31.186,18,33.97,41.608a72.134,72.134,0,0,0,.532-8.436c0-27.643-15.439-50.044-34.482-50.044s-34.523,22.319-34.523,50.044a72.187,72.187,0,0,0,.533,8.436C969.507,606.971,983.635,588.973,1000.713,588.973Z" transform="translate(1012.252 599.362)" fill="#8fd8f2"/>
      <path id="Ellipse_930" data-name="Ellipse 930" d="M11.631-.5A9.059,9.059,0,0,1,16.419.9a12.963,12.963,0,0,1,3.847,3.758,21.67,21.67,0,0,1,3.495,12.215,21.67,21.67,0,0,1-3.495,12.215,12.963,12.963,0,0,1-3.847,3.758,8.891,8.891,0,0,1-9.577,0,12.963,12.963,0,0,1-3.847-3.758A21.67,21.67,0,0,1-.5,16.873,21.67,21.67,0,0,1,2.995,4.658,12.963,12.963,0,0,1,6.842.9,9.059,9.059,0,0,1,11.631-.5Zm0,33.745c6.137,0,11.131-7.345,11.131-16.373S17.768.5,11.631.5.5,7.845.5,16.873,5.493,33.245,11.631,33.245Z" transform="translate(2001.334 1204.634)" fill="#4ebee5"/>
      <path id="Path_84507" data-name="Path 84507" d="M1214,443.82H985.012a137.193,137.193,0,0,0-110.287,55.655l-69.4,93.865h283.948Z" transform="translate(843.706 464.969)" fill="#d7f2f9"/>
      <path id="Path_84508" data-name="Path 84508" d="M1207.534,444.82,1086.251,590.2H807.32l66.917-90.588a135.615,135.615,0,0,1,108.526-54.8h224.771Z" transform="translate(845.79 466.017)" fill="#fff"/>
      <path id="Path_84509" data-name="Path 84509" d="M1213.837,443.82H985.012a137.193,137.193,0,0,0-110.287,55.655l-69.4,93.865h283.948l124.681-149.479Z" transform="translate(843.706 464.969)" fill="#fff"/>
      <path id="Path_84510" data-name="Path 84510" d="M1088.995,583.922l23.425-28.094L1175,452.79H916.214a137.048,137.048,0,0,0-41.772,37.267L805.6,583.185Z" transform="translate(843.988 474.366)" fill="#292852"/>
      <path id="Path_84511" data-name="Path 84511" d="M874.442,490.088,805.6,583.195h.819c13.371-6.737,122.04-58.051,324.88-58.5l25.268-41.4,16.586-30.51H916.214A137.049,137.049,0,0,0,874.442,490.088Z" transform="translate(843.988 474.356)" fill="#375591"/>
      <path id="Path_84512" data-name="Path 84512" d="M1402.073,501.369c-45.049-25.841-99.373-57.539-169.279-57.539H1217.15a51.4,51.4,0,0,0-43.82,24.572l-76.541,124.907-251.7,25.964-9.378,81.373L798.2,777.27H982.079a19.494,19.494,0,0,0,19.494-19.494h0V731.607a55.88,55.88,0,0,1,55.716-55.717h0a55.88,55.88,0,0,1,55.717,55.716v26.169A19.494,19.494,0,0,0,1132.5,777.27h243.138A20.865,20.865,0,0,0,1396.5,756.4h0c0-49.922,25.063-80.514,55.717-80.514h0c35.813,0,55.716,35.731,55.716,61.429h0c0,3.461.1,13.9.2,22.667a7.863,7.863,0,0,0,11.815,6.7L1540.7,754.6a19.882,19.882,0,0,0,9.869-17.18V699.049a17.179,17.179,0,0,0-11.405-16.2l-2.416-.86V616.468a40.032,40.032,0,0,0-15.378-31.6C1495.589,564.805,1442.8,524.692,1402.073,501.369Z" transform="translate(836.236 464.979)" fill="#fff"/>
      <path id="Path_84513" data-name="Path 84513" d="M1220.374,501.843c-41.874-23.057-86.821-47.833-140.612-47.833h-16.934a43.514,43.514,0,0,0-37.72,21.812L956.37,595.278h293.736a12.286,12.286,0,0,0,11.3-7.413l16.2-30.96a18.306,18.306,0,0,0-6.143-23.855C1257.948,524.265,1237.185,511.1,1220.374,501.843Z" transform="translate(1001.943 475.645)" fill="#ff8f2f"/>
      <path id="Path_84514" data-name="Path 84514" d="M939.359,582.875c20.8-44.844,245.37-65.668,245.37-65.668l-283.416-.737s-56.249,15.685-116.552,30.1c-23.773,5.693-40.953,11.324-51.417,21.828l19.309,9.542v39.765H714.22v83.462H906.249l9.133-39.97c6.839-45.253,106.478-32.762,143.069-79C1058.389,582.179,922.016,620.286,939.359,582.875Z" transform="translate(748.254 541.081)" fill="#d7f2f9"/>
      <path id="Path_84515" data-name="Path 84515" d="M752.675,551.372l-19.309-9.542c-15.931,16.136-19.146,35.281-19.146,49.308h38.455Z" transform="translate(748.254 567.649)" fill="#8fd8f2"/>
      <path id="Path_84516" data-name="Path 84516" d="M788.785,543.018c-23.671,6.143-45.048,14.886-55.409,25.391-15.931,16.136-19.146,35.281-19.146,49.307v83.463h38.434v-118.5c0-23.118,148.66-66.2,148.66-66.2S854.8,525.735,788.785,543.018Z" transform="translate(748.264 541.091)" fill="#fff"/>
      <circle id="Ellipse_931" data-name="Ellipse 931" cx="74.535" cy="74.535" r="74.535" transform="translate(1819.154 1146.972)" fill="#292852"/>
      <path id="Path_84517" data-name="Path 84517" d="M950.414,576.1c27.643,0,50.045,14.211,50.045,41.854a50.045,50.045,0,1,1-100.089,0C900.37,590.229,922.771,576.1,950.414,576.1Z" transform="translate(943.274 603.552)" fill="#fff"/>
      <path id="Path_84518" data-name="Path 84518" d="M950.41,589.125A50.024,50.024,0,0,1,999.7,630.733a50.045,50.045,0,1,0-98.553,0A50.024,50.024,0,0,1,950.41,589.125Z" transform="translate(943.279 599.21)" fill="#4ebee5"/>
      <path id="Ellipse_932" data-name="Ellipse 932" d="M16.873-.5a17.377,17.377,0,0,1,6.762,33.38A17.377,17.377,0,0,1,10.11.865,17.264,17.264,0,0,1,16.873-.5Zm0,33.745A16.373,16.373,0,0,0,28.45,5.3,16.373,16.373,0,1,0,5.3,28.45,16.265,16.265,0,0,0,16.873,33.245Z" transform="translate(1876.816 1204.634)" fill="#4ebee5"/>
      <path id="Path_84519" data-name="Path 84519" d="M727.24,613.878l2.58-14.088H974.187l6.778,14.088Z" transform="translate(761.894 628.371)" fill="#fff"/>
      <path id="Path_84520" data-name="Path 84520" d="M956.37,524.163s7.924,9.481,21.685,24.06c19.248,20.476,43,2.416,27.5-18-10.627-13.985-10.648-6.143-10.648-6.143Z" transform="translate(1001.943 546.759)" fill="#8fd8f2"/>
      <path id="Line_3152" data-name="Line 3152" d="M215.29.5H0A.5.5,0,0,1-.5,0,.5.5,0,0,1,0-.5H215.29a.5.5,0,0,1,.5.5A.5.5,0,0,1,215.29.5Z" transform="translate(1992.14 1221.752)" fill="#4ebee5"/>
      <path id="Path_84521" data-name="Path 84521" d="M1055.62,536.166h-31.677a4.1,4.1,0,0,1,0-8.006h31.677a4.1,4.1,0,0,1,0,8.006Z" transform="translate(1069.351 553.328)" fill="#4ebee5"/>
      <path id="Path_84522" data-name="Path 84522" d="M1121.621,536.166h-31.678a4.1,4.1,0,0,1,0-8.006h31.678a4.1,4.1,0,0,1,0,8.006Z" transform="translate(1138.496 553.328)" fill="#4ebee5"/>
      <path id="Path_84523" data-name="Path 84523" d="M970.99,505.86h50.987a14.845,14.845,0,0,1,13.494,21.05h0a24.122,24.122,0,0,1-21.91,14.047H956.37Z" transform="translate(1001.943 529.965)" fill="#fff"/>
      <path id="Path_84524" data-name="Path 84524" d="M752.486,579.352l-5.263-9.173-27.6-18.429a70.938,70.938,0,0,0-5.221,21.418l8.313,11.733a81.737,81.737,0,0,1,14.334,36.858l3.706,28.462h14.334l-2.6-69.477Z" transform="translate(748.443 578.042)" fill="#d7f2f9"/>
      <path id="Path_84525" data-name="Path 84525" d="M840.817,563.064,979.586,535.38,964.5,556.594a65.279,65.279,0,0,1-40.953,26.292L808.28,604.713Z" transform="translate(846.796 560.892)" fill="#259ed9"/>
      <path id="Path_84526" data-name="Path 84526" d="M873.282,546.243h0c23.241-4.628,12.04,30.94-15.542,39.274l13.883-2.621A65.28,65.28,0,0,0,912.577,556.6l15.091-21.214Z" transform="translate(898.613 560.902)" fill="#ffb061"/>
      <path id="Path_84527" data-name="Path 84527" d="M736.92,539.81a45.071,45.071,0,0,0-4.812,4.1,64.191,64.191,0,0,0-16.668,29.486c10.955,17.426,35.957,26.62,35.957,26.62V558.239C746.544,555.474,737.759,549.086,736.92,539.81Z" transform="translate(749.532 565.533)" fill="#259ed9"/>
      <path id="Path_84528" data-name="Path 84528" d="M733,548.81l61.163,10.361,125.5-10.177-32.64,41.67-96.833,12.327L733,590.664Z" transform="translate(767.929 574.962)" fill="#292852"/>
      <path id="Path_84529" data-name="Path 84529" d="M1004.314,475.817,976.22,524.633h261.322c-11.937-7.576-25.944-16.176-37.963-22.79-41.874-23.057-86.821-47.833-140.612-47.833h-16.934a43.515,43.515,0,0,0-37.72,21.812Z" transform="translate(1022.739 475.645)" fill="#ffb061"/>
      <rect id="Rectangle_1808" data-name="Rectangle 1808" width="8.006" height="150.973" transform="matrix(0.992, -0.13, 0.13, 0.992, 2116.009, 926.286)" fill="#fff"/>
      <rect id="Rectangle_1809" data-name="Rectangle 1809" width="8.006" height="92.759" transform="matrix(0.992, -0.13, 0.13, 0.992, 2241.903, 984.024)" fill="#fff"/>
      <path id="Path_84530" data-name="Path 84530" d="M852.63,580.35h31.042l13.043,39.806H868.295Z" transform="translate(893.259 608.005)" fill="#292852"/>
      <path id="Path_84531" data-name="Path 84531" d="M875.793,580.35H830.52l53.73,21.5Z" transform="translate(870.096 608.005)" fill="#d7f2f9"/>
      <path id="Path_84532" data-name="Path 84532" d="M867.926,618.993l10.689-37.533-90.322,10.074-54.672-8.846,1.372,36.3Z" transform="translate(768.578 609.168)" fill="#292852"/>
      <path id="Path_84533" data-name="Path 84533" d="M1183.836,553.87V529.114a11.823,11.823,0,0,0-.1-1.9H1135l4.218,9.358a29.424,29.424,0,0,0,26.824,17.3Z" transform="translate(1189.085 552.333)" fill="#ff527b"/>
      <path id="Path_84534" data-name="Path 84534" d="M790.191,602.991l3.973-43.82L733,548.81v41.854Z" transform="translate(767.929 574.962)" fill="#375591"/>
      <path id="Line_3153" data-name="Line 3153" d="M0,13.093a.5.5,0,0,1-.49-.4A.5.5,0,0,1-.1,12.1L63.688-.491a.5.5,0,0,1,.587.394.5.5,0,0,1-.394.587L.1,13.084A.5.5,0,0,1,0,13.093Z" transform="translate(1690.562 1129.771)" fill="#fff"/>
      <path id="Path_84535" data-name="Path 84535" d="M733.743,569.139a.5.5,0,0,1-.29-.093,50.084,50.084,0,0,1-6.866-6.227,39.115,39.115,0,0,1-5.059-6.766A22.879,22.879,0,0,1,718.5,547.7a.5.5,0,0,1,.991-.133,21.883,21.883,0,0,0,2.891,7.978,38.083,38.083,0,0,0,4.922,6.586,49.043,49.043,0,0,0,6.724,6.1.5.5,0,0,1-.291.907Z" transform="translate(753.262 573.726)" fill="#fff"/>
      <path id="Path_84536" data-name="Path 84536" d="M1012.555,207.708v-7.924c0-41.69,33.664-76.644,75.354-75.763a73.9,73.9,0,0,1,62.494,36.735,32.578,32.578,0,0,0,47.424,9.726l.532-.389a33.809,33.809,0,0,0,13.514-23.22,111.105,111.105,0,0,1,113.317-97.12c60.509,1.659,107.973,52.809,107.973,113.358v64.911a43.861,43.861,0,0,0,43.861,43.861h14.907a38.905,38.905,0,0,1,38.905,38.905h0a38.905,38.905,0,0,1-38.905,38.905H948.525a38.905,38.905,0,0,1-38.905-38.905h0a38.905,38.905,0,0,1,38.905-38.905h0a64.03,64.03,0,0,0,64.03-64.03h0Z" transform="translate(952.965 52.077)" fill="#ff8a39"/>
      <path id="Path_84537" data-name="Path 84537" d="M968.851,108.282h0c0-39.622-30.715-73.2-70.214-75.231a74.1,74.1,0,0,0-77.811,70.112v3.891h0a35.506,35.506,0,0,1-35.506,35.506H750.182A30.182,30.182,0,0,0,720,172.742h0a30.182,30.182,0,0,0,30.1,30.264h253.028a30.182,30.182,0,0,0,30.162-30.2h0a30.183,30.183,0,0,0-30.182-30.182h0a34.278,34.278,0,0,1-34.257-34.3Z" transform="translate(754.309 34.521)" fill="#ff8a39"/>
      <rect id="Rectangle_1810" data-name="Rectangle 1810" width="2948.619" height="1403.829" transform="translate(0)" fill="none"/>
      <rect id="Rectangle_1811" data-name="Rectangle 1811" width="263.799" height="199.359" transform="translate(2684.82 687.151)" fill="#2480fe"/>
      <path id="Path_84538" data-name="Path 84538" d="M1368.623,335.58,1256.33,534.939h224.607Z" transform="translate(1316.197 351.571)" fill="#2480fe"/>
      <path id="Path_84539" data-name="Path 84539" d="M950.41,589.125A50.024,50.024,0,0,1,999.7,630.733a50.045,50.045,0,1,0-98.553,0A50.024,50.024,0,0,1,950.41,589.125Z" transform="translate(943.279 599.21)" fill="#4ebee5"/>
      <path id="Ellipse_933" data-name="Ellipse 933" d="M16.873-.5a17.377,17.377,0,0,1,6.762,33.38A17.377,17.377,0,0,1,10.11.865,17.264,17.264,0,0,1,16.873-.5Zm0,33.745A16.373,16.373,0,0,0,28.45,5.3,16.373,16.373,0,1,0,5.3,28.45,16.265,16.265,0,0,0,16.873,33.245Z" transform="translate(1876.816 1204.634)" fill="#4ebee5"/>
      <path id="Path_84540" data-name="Path 84540" d="M879.79,664.345H896.6A19.494,19.494,0,0,0,916.1,644.851h0V618.682A55.88,55.88,0,0,1,965.587,563.4l-.389-10.238C904.444,538.271,884.315,635.6,879.79,664.345Z" transform="translate(921.714 577.904)" fill="#fff"/>
    </g>
  </g>
</svg>
